<?xml version="1.0" encoding="UTF-8" standalone="no"?>
<!-- Created with Inkscape (http://www.inkscape.org/) -->

<svg width="1024" height="1024" viewBox="0 0 270.93332 270.93334" version="1.1" id="svg5" inkscape:version="1.1.2 (b8e25be833, 2022-02-05)" sodipodi:docname="site-favicon.svg" xmlns:inkscape="http://www.inkscape.org/namespaces/inkscape" xmlns:sodipodi="http://sodipodi.sourceforge.net/DTD/sodipodi-0.dtd" xmlns="http://www.w3.org/2000/svg" xmlns:svg="http://www.w3.org/2000/svg" xmlns:rdf="http://www.w3.org/1999/02/22-rdf-syntax-ns#" xmlns:cc="http://creativecommons.org/ns#" xmlns:dc="http://purl.org/dc/elements/1.1/">
  <title id="title8132">tharr916.com favicon</title>
  <sodipodi:namedview id="namedview7" pagecolor="#505050" bordercolor="#ffffff" borderopacity="1" inkscape:pageshadow="0" inkscape:pageopacity="0" inkscape:pagecheckerboard="1" inkscape:document-units="px" showgrid="false" units="px" showguides="true" inkscape:guide-bbox="true" inkscape:zoom="0.32026164" inkscape:cx="846.18313" inkscape:cy="1033.5299" inkscape:window-width="2560" inkscape:window-height="1369" inkscape:window-x="-8" inkscape:window-y="-8" inkscape:window-maximized="1" inkscape:current-layer="text2124" />
  <defs id="defs2" />
  <g inkscape:label="Layer 1" inkscape:groupmode="layer" id="layer1">
    <g aria-label="TH" id="text2124" style="font-size:184.101px;line-height:1.25;letter-spacing:0px;word-spacing:0px;stroke-width:0.264583">
      <path id="path6604" style="font-family:'Kristen ITC';-inkscape-font-specification:'Kristen ITC, Normal';stroke-width:0.264583" d="m 107.75678,25.099382 c -33.88712,0 -58.961882,3.857502 -75.224679,11.572876 -9.606396,4.614097 -14.409515,14.52314 -14.409515,29.726964 0,9.455114 3.176846,14.182531 9.530683,14.182531 7.866655,0 12.480519,-7.601459 13.842055,-22.805283 11.573059,-6.353835 31.277597,-9.682082 59.113446,-9.984646 0,0 2.1775,0 2.33441,0 -0.93026,1.968965 -1.62184,4.322136 -2.0572,7.086699 -2.193587,27.003807 -3.895558,51.095757 -5.105814,72.275207 -5.597423,1.36153 -8.395768,4.68979 -8.395768,9.98465 0,3.85768 2.571886,7.03454 7.715471,9.53069 -0.983333,37.89609 -1.475391,64.21927 -1.475391,78.96925 0,7.18589 0.869912,12.29116 2.609652,15.31679 1.815381,3.25256 4.99223,4.87884 9.53068,4.87884 4.68973,0 7.94228,-1.70199 9.75767,-5.10582 1.66409,-3.10128 2.49616,-8.50936 2.49616,-16.22473 0,-0.60513 -0.0378,-3.66842 -0.11349,-9.1902 -0.0756,-5.59743 -0.1135,-10.81691 -0.1135,-15.65793 0,-16.11152 0.41636,-33.09276 1.24841,-50.94401 16.48972,0.75641 39.63605,1.13426 69.43857,1.13426 16.11151,0 28.7432,-0.075 37.89575,-0.22633 v 50.26307 c 0,12.25383 0.1514,20.99015 0.45396,26.20937 0.30257,5.29486 1.05893,9.03947 2.26919,11.23306 1.73974,3.17692 4.91659,4.76534 9.53068,4.76534 8.01878,0 12.05905,-5.5399 12.13316,-16.60303 -0.0273,-0.39415 -0.13805,-7.57582 -0.3333,-21.63384 -0.22693,-16.33844 -0.34048,-33.77324 -0.34048,-52.30526 0,-24.65894 0.45421,-48.10808 1.3619,-70.346508 0.90769,-22.314067 1.36125,-32.260315 1.36125,-29.839803 0,-10.211523 -3.8575,-15.317448 -11.57288,-15.317448 -7.48845,0 -11.68661,5.408082 -12.5943,16.224729 -0.75641,9.152547 -1.43708,33.546649 -2.0422,73.18249 -21.25509,1.28589 -43.41796,1.92936 -66.48844,1.92936 -18.15381,0 -31.46681,-0.15141 -39.9386,-0.45397 0.98334,-17.24613 2.1939,-34.340922 3.63108,-51.28449 1.13462,-13.615361 1.70172,-20.801116 1.70172,-21.557525 0,-2.263958 -0.23088,-4.245327 -0.69203,-5.944609 27.27036,1.659685 45.76818,4.03826 55.44323,7.140185 0.68077,0.22692 2.7991,1.210386 6.35423,2.950127 2.64743,1.285896 4.87866,1.928704 6.69404,1.928704 2.64744,0 5.06792,-1.172717 7.2615,-3.517585 2.26923,-2.420513 3.4041,-5.105298 3.4041,-8.055294 0,-15.657669 -32.07191,-23.486881 -96.21541,-23.486881 z M 250.76137,225.487 c 0.004,0.0639 0.007,-0.007 0.007,-0.30265 0,0.10416 -0.006,0.19945 -0.007,0.30265 z" />
    </g>
  </g>
  <metadata id="metadata8130">
    <rdf:RDF>
      <cc:Work rdf:about="">
        <dc:title>tharr916.com favicon</dc:title>
      </cc:Work>
    </rdf:RDF>
  </metadata>
</svg>
